<svg width="250" height="250" viewBox="0 0 250 250" fill="none" xmlns="http://www.w3.org/2000/svg">
<rect width="250" height="250" rx="50" fill="black"/>
<path d="M104.883 169.367L100.684 193H40.7227L44.7266 169.367H104.883ZM74.0234 50.8125L49.4141 193H21.4844L45.9961 50.8125H74.0234ZM107.422 108.43L103.418 131.379H51.3672L55.2734 108.43H107.422ZM125.195 50.8125L120.996 74.543H61.1328L65.332 50.8125H125.195ZM223.34 118.293L214.453 176.887C210.547 181.249 205.957 184.764 200.684 187.434C195.41 190.103 189.844 192.023 183.984 193.195C178.125 194.432 172.363 195.018 166.699 194.953C157.975 194.823 150.716 193.033 144.922 189.582C139.128 186.132 134.603 181.542 131.348 175.812C128.158 170.018 126.074 163.54 125.098 156.379C124.186 149.217 124.219 141.763 125.195 134.016L128.906 109.797C130.078 101.789 132.064 94.1068 134.863 86.75C137.663 79.3932 141.374 72.8177 145.996 67.0234C150.618 61.2292 156.283 56.7044 162.988 53.4492C169.759 50.1289 177.669 48.5664 186.719 48.7617C196.615 49.0221 204.525 51.138 210.449 55.1094C216.374 59.0156 220.703 64.5169 223.438 71.6133C226.172 78.6445 227.604 86.7826 227.734 96.0273H200.684C200.749 91.9909 200.456 88.2148 199.805 84.6992C199.154 81.1185 197.754 78.2214 195.605 76.0078C193.457 73.7292 190.007 72.4922 185.254 72.2969C180.111 72.1016 175.814 73.1432 172.363 75.4219C168.978 77.7005 166.211 80.6953 164.062 84.4062C161.914 88.1172 160.254 92.2188 159.082 96.7109C157.975 101.138 157.194 105.435 156.738 109.602L153.223 134.113C152.767 137.824 152.409 141.796 152.148 146.027C151.953 150.259 152.279 154.296 153.125 158.137C154.036 161.913 155.762 165.038 158.301 167.512C160.84 169.921 164.616 171.158 169.629 171.223C171.908 171.223 173.991 171.027 175.879 170.637C177.832 170.181 179.688 169.562 181.445 168.781C183.268 167.935 185.091 167.023 186.914 166.047L192.09 139.875H172.168L175.977 118.293H223.34Z" fill="white"/>
</svg>
