<svg version="1.1" id="Layer_1" xmlns="http://www.w3.org/2000/svg" xmlns:xlink="http://www.w3.org/1999/xlink" x="0px" y="0px"
	 width="100%" viewBox="0 0 858 1022" enable-background="new 0 0 858 1022" xml:space="preserve">
<path fill="#FFFFFF" opacity="1.000000" stroke="none" 
	d="
M439.000000,1023.000000 
	C292.666656,1023.000000 146.833328,1023.000000 1.000000,1023.000000 
	C1.000000,682.333313 1.000000,341.666656 1.000000,1.000000 
	C287.000000,1.000000 573.000000,1.000000 859.000000,1.000000 
	C859.000000,341.666656 859.000000,682.333313 859.000000,1023.000000 
	C719.166687,1023.000000 579.333313,1023.000000 439.000000,1023.000000 
M543.168579,153.587265 
	C543.165466,153.351288 543.068726,153.163620 542.725403,152.256744 
	C541.766479,150.196091 540.807495,148.135437 539.943604,145.649902 
	C539.916077,145.332764 539.761658,145.099792 539.281555,144.316101 
	C538.860840,143.540176 538.440186,142.764252 538.096375,141.631454 
	C538.094116,141.369019 537.988159,141.158966 537.492493,140.306564 
	C536.594727,138.566589 535.696899,136.826630 534.918579,134.377899 
	C534.131348,132.765991 533.344055,131.154099 532.143494,128.972595 
	C531.308105,127.179703 530.550110,125.345840 529.625916,123.599976 
	C510.512024,87.493225 486.439728,55.166344 456.287140,27.480206 
	C450.861084,22.497978 450.863190,22.495701 445.719391,28.816008 
	C437.752350,36.340382 429.344574,43.454876 421.897247,51.462597 
	C394.778809,80.621658 372.896698,113.339272 356.786743,149.813293 
	C341.606842,184.181549 331.927155,220.055649 327.143250,257.377350 
	C311.119049,246.513412 295.686615,234.619171 278.945496,225.003357 
	C245.685425,205.899353 209.658951,194.306885 171.615570,188.821579 
	C166.154709,188.034210 165.498764,189.703049 165.116760,194.339203 
	C162.760986,201.923813 159.783005,209.379440 158.178238,217.119751 
	C154.778183,233.519424 150.919785,249.963120 149.441940,266.583740 
	C147.917374,283.729523 148.600830,301.116577 149.033096,318.380188 
	C149.585022,340.421936 154.178070,361.896088 160.257339,382.999084 
	C167.449997,407.967010 177.442657,431.780731 190.794998,454.161011 
	C204.920456,477.837189 221.301895,499.721405 241.138168,518.930481 
	C247.802643,525.384216 254.602722,531.697876 260.346588,538.172974 
	C238.379379,538.200745 216.411438,538.143555 194.445618,538.332275 
	C190.339996,538.367554 186.146133,539.011414 182.162140,540.033630 
	C174.135117,542.093262 169.116592,548.986755 169.098846,557.329285 
	C169.071945,569.977539 169.079544,582.625916 169.093781,595.274231 
	C169.104614,604.901123 173.651459,611.510559 182.868881,614.210632 
	C186.286789,615.211914 190.102966,614.886902 193.741714,615.093323 
	C199.511398,615.420776 205.284576,615.686584 210.996994,616.809143 
	C211.132538,618.181152 211.268066,619.553101 211.157715,621.586121 
	C211.580643,622.587891 212.003586,623.589661 212.401108,625.447815 
	C213.023376,631.972839 213.645660,638.497864 214.139404,645.511719 
	C214.207352,645.665833 214.275314,645.820007 214.281509,646.622192 
	C214.399460,647.034302 214.517426,647.446472 214.346100,648.644287 
	C216.255707,668.157959 218.166138,687.671631 220.074707,707.185364 
	C221.724518,724.053650 223.366135,740.922852 225.022705,757.790466 
	C226.370712,771.516174 227.761398,785.237732 229.086609,798.965637 
	C230.922974,817.988525 232.685501,837.018677 234.536774,856.040161 
	C236.017700,871.256470 238.355301,886.435120 238.935089,901.682922 
	C239.852570,925.811951 260.831024,941.931335 281.100098,942.051147 
	C334.404572,942.366089 387.712158,942.159241 441.018494,942.149963 
	C442.680542,942.149658 444.342590,942.037292 446.932098,942.121826 
	C495.587524,942.137939 544.243225,942.078796 592.898071,942.253235 
	C599.999512,942.278687 606.826965,941.601929 613.359741,938.863892 
	C626.423462,933.388672 639.076050,921.846008 640.080750,904.077576 
	C640.784119,891.636658 642.482788,879.252441 643.717590,866.840942 
	C645.183044,852.111572 646.652466,837.382507 648.075256,822.648987 
	C649.945251,803.284546 651.753723,783.914185 653.621826,764.549561 
	C655.107117,749.153870 656.615906,733.760315 658.163086,718.370789 
	C659.643311,703.647278 661.267822,688.937805 662.670593,674.207092 
	C663.472473,665.787170 663.958557,657.337158 664.822205,648.091125 
	C666.031799,637.086426 667.241455,626.081665 669.330139,615.141113 
	C677.143250,615.065979 684.969849,615.253418 692.765991,614.850098 
	C702.809570,614.330627 710.027466,606.539673 710.058716,596.644897 
	C710.100769,583.343079 710.129089,570.040283 710.002930,556.739502 
	C709.981628,554.500549 709.534363,552.098877 708.629517,550.063416 
	C704.305237,540.335632 695.509827,538.603333 686.255188,538.336060 
	C675.290955,538.019409 664.314392,538.132812 653.654358,537.394043 
	C661.526489,527.326355 669.778809,517.529663 677.189026,507.132721 
	C691.180664,487.501465 702.691589,466.382629 711.095398,443.800110 
	C716.552429,429.135864 720.959473,414.034973 725.006226,398.907440 
	C727.860413,388.238037 729.634827,377.243317 731.292664,366.303101 
	C732.406677,358.951477 732.474304,351.441315 733.169556,343.075836 
	C733.113892,331.717346 733.058167,320.358887 733.193909,308.091644 
	C731.412415,293.548553 729.715759,278.993652 727.701172,264.482941 
	C727.524719,263.212097 725.261658,262.230927 723.318848,260.940063 
	C722.883972,261.022369 722.449036,261.104645 721.369080,261.133575 
	C720.944824,261.199890 720.520508,261.266235 719.179626,261.074371 
	C671.451172,261.845734 625.884216,271.786469 582.399170,293.164856 
	C581.796997,293.697754 581.194824,294.230652 579.903687,294.878235 
	C577.589905,296.043152 575.276123,297.208099 572.493347,297.593262 
	C572.230896,293.201782 572.124023,288.793854 571.662781,284.423340 
	C571.190674,279.949493 570.371460,275.512329 569.741516,270.177856 
	C569.586304,266.793182 569.431030,263.408539 569.673096,259.434998 
	C569.209351,257.523773 568.745605,255.612564 568.268555,253.134766 
	C568.215698,252.760880 568.162903,252.387009 568.487549,251.464142 
	C568.283386,249.982895 568.079224,248.501648 567.909180,246.294922 
	C567.807434,245.578796 567.705688,244.862671 567.853760,243.490936 
	C567.382629,242.527267 566.911499,241.563599 566.383240,239.782791 
	C566.276367,237.857361 566.169495,235.931946 566.486877,233.454727 
	C565.362244,229.269943 564.237610,225.085159 562.997437,220.938538 
	C562.997437,220.938538 563.117676,220.926193 563.200439,220.184448 
	C563.099121,219.449097 562.997803,218.713745 562.912659,217.351379 
	C562.847290,216.939331 562.781921,216.527283 562.916626,215.448639 
	C562.406555,214.509262 561.896545,213.569901 561.321960,211.859070 
	C561.213135,210.572586 561.104309,209.286087 561.389282,207.531525 
	C560.364441,204.910873 559.339600,202.290207 558.236511,199.305359 
	C558.236511,199.305359 558.088562,198.963531 558.165649,198.289413 
	C558.070557,197.850525 557.975464,197.411636 557.895447,196.351379 
	C557.812866,195.946976 557.730347,195.542572 557.818542,194.529495 
	C557.343750,193.894180 556.869019,193.258865 556.325256,191.972443 
	C556.267212,191.320404 556.209229,190.668381 556.475891,189.614090 
	C556.073486,188.975540 555.671082,188.336990 555.125244,187.353149 
	C555.125244,187.353149 554.919800,187.040787 555.008118,186.261063 
	C554.242737,184.019012 553.477356,181.776962 552.579651,178.824005 
	C552.075195,177.218033 551.570740,175.612061 551.430115,173.581268 
	C550.717957,171.983459 550.005737,170.385666 549.098572,168.271759 
	C548.774841,167.826736 548.451111,167.381699 548.141235,166.480347 
	C548.109863,166.166748 547.988647,165.892929 547.659058,164.921753 
	C547.088196,163.290802 546.517334,161.659836 545.921143,159.290390 
	C544.980164,157.496384 544.039246,155.702377 543.004883,153.999390 
	C543.004883,153.999390 543.101257,153.908081 543.168579,153.587265 
z"/>
<path fill="#8DAE4B" opacity="1.000000" stroke="none" 
	d="
M165.686707,193.929932 
	C165.498764,189.703049 166.154709,188.034210 171.615570,188.821579 
	C209.658951,194.306885 245.685425,205.899353 278.945496,225.003357 
	C295.686615,234.619171 311.119049,246.513412 327.583374,257.753418 
	C337.141083,267.039093 346.324188,275.882782 355.361908,284.872650 
	C372.036621,301.459015 385.736938,320.300873 397.784058,340.460815 
	C408.152435,357.811432 417.063354,375.803589 423.480469,394.976318 
	C426.244324,403.233978 428.837158,411.563141 431.102722,419.968994 
	C433.064301,427.247009 434.453491,434.679230 436.078094,442.435547 
	C433.973907,448.361542 431.609772,453.808807 429.854034,459.445587 
	C425.049255,474.870758 420.070557,490.263672 416.000946,505.888245 
	C413.261871,516.404602 411.951141,527.292969 409.532867,538.032471 
	C400.070892,538.031921 391.077454,538.013733 382.032654,537.639648 
	C381.574280,536.374634 381.271759,535.399475 380.745209,534.565857 
	C362.513611,505.699402 344.202728,476.882874 326.026337,447.981689 
	C305.260437,414.963013 284.610077,381.871674 263.912109,348.810272 
	C247.038086,321.856873 230.199646,294.881134 213.284653,267.953461 
	C202.428375,250.670883 191.514496,233.423935 180.520508,216.228729 
	C175.712357,208.708557 170.639404,201.357697 165.686707,193.929932 
z"/>
<path fill="#D89272" opacity="1.000000" stroke="none" 
	d="
M446.004639,941.977234 
	C444.342590,942.037292 442.680542,942.149658 441.018494,942.149963 
	C387.712158,942.159241 334.404572,942.366089 281.100098,942.051147 
	C260.831024,941.931335 239.852570,925.811951 238.935089,901.682922 
	C238.355301,886.435120 236.017700,871.256470 234.536774,856.040161 
	C232.685501,837.018677 230.922974,817.988525 229.086609,798.965637 
	C227.761398,785.237732 226.370712,771.516174 225.022705,757.790466 
	C223.366135,740.922852 221.724518,724.053650 220.074707,707.185364 
	C218.166138,687.671631 216.255707,668.157959 214.849854,648.185120 
	C217.143707,647.483154 218.933640,647.030029 220.723984,647.028381 
	C262.781982,646.988586 304.840027,646.985413 346.897949,647.040833 
	C348.623260,647.043152 350.347717,647.679565 351.778748,648.199524 
	C341.732239,654.173645 334.100616,662.110291 327.817810,671.488831 
	C311.880737,695.278442 306.063934,722.163818 304.389709,750.093262 
	C303.017548,772.984497 306.545776,795.321533 313.814026,817.168579 
	C319.443878,834.090942 327.927338,849.119019 340.968292,861.226013 
	C360.498596,879.357605 388.076385,879.240234 407.878998,859.988647 
	C424.024231,844.292725 431.765686,824.785278 437.898468,804.069397 
	C438.135071,803.270264 438.950165,802.642334 439.495667,801.934570 
	C440.289185,802.660522 441.531982,803.247986 441.805389,804.134338 
	C444.038635,811.374695 446.090973,818.670898 447.786560,826.032227 
	C446.917755,827.915955 446.065765,829.716675 446.061981,831.519287 
	C445.984711,868.338440 446.004333,905.157898 446.004639,941.977234 
z"/>
<path fill="#ACD06A" opacity="1.000000" stroke="none" 
	d="
M410.001404,538.014893 
	C411.951141,527.292969 413.261871,516.404602 416.000946,505.888245 
	C420.070557,490.263672 425.049255,474.870758 429.854034,459.445587 
	C431.609772,453.808807 433.973907,448.361542 436.415192,442.359863 
	C438.617554,438.619843 440.633057,435.429230 442.270569,432.055206 
	C444.341339,427.788391 446.104309,423.372192 448.278015,418.828552 
	C451.686310,413.798828 454.679779,408.865662 457.970062,404.139130 
	C473.913055,381.236450 491.282043,359.669708 512.231384,340.926636 
	C530.019348,325.011902 549.568970,311.922516 570.376160,299.980591 
	C571.454651,299.441071 572.208496,298.907074 572.962341,298.373047 
	C575.276123,297.208099 577.589905,296.043152 580.595703,294.869934 
	C581.863403,294.298309 582.439209,293.734985 583.014954,293.171631 
	C625.884216,271.786469 671.451172,261.845734 719.624146,261.560883 
	C719.523315,263.382751 719.254456,264.939026 718.390869,266.020142 
	C705.882812,281.678741 693.252869,297.240021 680.736084,312.891724 
	C662.427429,335.785980 644.187073,358.734894 625.915894,381.659119 
	C607.541687,404.712708 589.166321,427.765411 570.789856,450.817230 
	C551.173523,475.424408 531.509949,499.994202 511.981262,524.670776 
	C508.651520,528.878296 505.895599,533.539917 502.420288,538.006104 
	C483.311066,538.095215 464.656097,538.169983 445.536041,538.187927 
	C433.381073,538.092407 421.691254,538.053650 410.001404,538.014893 
z"/>
<path fill="#C6876A" opacity="1.000000" stroke="none" 
	d="
M446.468384,942.049561 
	C446.004333,905.157898 445.984711,868.338440 446.061981,831.519287 
	C446.065765,829.716675 446.917755,827.915955 448.084473,826.197876 
	C456.568604,842.205566 465.274933,857.300110 480.759918,867.338135 
	C492.707092,875.082642 505.473022,876.410767 518.763184,872.911743 
	C530.842224,869.731445 539.809448,861.319885 547.189697,851.932739 
	C565.566162,828.559143 573.166260,801.051636 574.679871,771.854492 
	C575.494873,756.133606 575.051575,740.414124 572.236938,724.687317 
	C568.688782,704.862671 561.536133,686.794739 550.663574,669.995728 
	C544.470276,660.426514 535.639343,653.727478 527.161743,647.088806 
	C571.334290,647.037415 615.018738,646.992981 658.702881,647.078735 
	C660.665405,647.082581 662.625610,648.266479 664.586792,648.900696 
	C663.958557,657.337158 663.472473,665.787170 662.670593,674.207092 
	C661.267822,688.937805 659.643311,703.647278 658.163086,718.370789 
	C656.615906,733.760315 655.107117,749.153870 653.621826,764.549561 
	C651.753723,783.914185 649.945251,803.284546 648.075256,822.648987 
	C646.652466,837.382507 645.183044,852.111572 643.717590,866.840942 
	C642.482788,879.252441 640.784119,891.636658 640.080750,904.077576 
	C639.076050,921.846008 626.423462,933.388672 613.359741,938.863892 
	C606.826965,941.601929 599.999512,942.278687 592.898071,942.253235 
	C544.243225,942.078796 495.587524,942.137939 446.468384,942.049561 
z"/>
<path fill="#ACD06A" opacity="1.000000" stroke="none" 
	d="
M165.401733,194.134567 
	C170.639404,201.357697 175.712357,208.708557 180.520508,216.228729 
	C191.514496,233.423935 202.428375,250.670883 213.284653,267.953461 
	C230.199646,294.881134 247.038086,321.856873 263.912109,348.810272 
	C284.610077,381.871674 305.260437,414.963013 326.026337,447.981689 
	C344.202728,476.882874 362.513611,505.699402 380.745209,534.565857 
	C381.271759,535.399475 381.574280,536.374634 381.554962,537.662720 
	C341.199371,538.052979 301.270081,538.064270 261.340820,538.075623 
	C254.602722,531.697876 247.802643,525.384216 241.138168,518.930481 
	C221.301895,499.721405 204.920456,477.837189 190.794998,454.161011 
	C177.442657,431.780731 167.449997,407.967010 160.257339,382.999084 
	C154.178070,361.896088 149.585022,340.421936 149.033096,318.380188 
	C148.600830,301.116577 147.917374,283.729523 149.441940,266.583740 
	C150.919785,249.963120 154.778183,233.519424 158.178238,217.119751 
	C159.783005,209.379440 162.760986,201.923813 165.401733,194.134567 
z"/>
<path fill="#8DAE4B" opacity="1.000000" stroke="none" 
	d="
M570.051514,299.986115 
	C549.568970,311.922516 530.019348,325.011902 512.231384,340.926636 
	C491.282043,359.669708 473.913055,381.236450 457.970062,404.139130 
	C454.679779,408.865662 451.686310,413.798828 448.280029,418.357605 
	C448.004333,385.615143 448.004761,353.151855 448.004761,320.688538 
	C448.004700,225.629318 448.016052,130.570084 447.934753,35.510941 
	C447.932800,33.238396 446.893982,30.966740 446.338806,28.694668 
	C450.863190,22.495701 450.861084,22.497978 456.287140,27.480206 
	C486.439728,55.166344 510.512024,87.493225 529.625916,123.599976 
	C530.550110,125.345840 531.308105,127.179703 532.232056,129.622253 
	C533.146790,131.876816 533.972961,133.481735 534.799133,135.086670 
	C535.696899,136.826630 536.594727,138.566589 537.409424,140.682800 
	C537.557373,141.368820 537.788391,141.678574 538.019470,141.988327 
	C538.440186,142.764252 538.860840,143.540176 539.193054,144.709686 
	C539.352539,145.427109 539.600586,145.750946 539.848572,146.074783 
	C540.807495,148.135437 541.766479,150.196091 542.569702,152.663696 
	C542.643066,153.349777 542.872192,153.628922 543.101257,153.908081 
	C543.101257,153.908081 543.004883,153.999390 543.018433,154.270844 
	C544.003540,156.371140 544.975037,158.199997 545.946533,160.028870 
	C546.517334,161.659836 547.088196,163.290802 547.583130,165.528488 
	C547.713867,166.402374 547.920593,166.669525 548.127319,166.936676 
	C548.451111,167.381699 548.774841,167.826736 549.053528,168.807251 
	C549.694458,170.897202 550.380432,172.451630 551.066345,174.006073 
	C551.570740,175.612061 552.075195,177.218033 552.483704,179.518219 
	C553.231750,182.488556 554.075806,184.764664 554.919800,187.040787 
	C554.919800,187.040787 555.125244,187.353149 555.136414,187.862228 
	C555.482117,188.919647 555.816711,189.467987 556.151245,190.016342 
	C556.209229,190.668381 556.267212,191.320404 556.262451,192.617706 
	C556.682373,193.888046 557.165100,194.513107 557.647827,195.138168 
	C557.730347,195.542572 557.812866,195.946976 557.699707,196.834320 
	C557.698853,197.866028 557.893677,198.414780 558.088562,198.963531 
	C558.088562,198.963531 558.236511,199.305359 558.196411,199.828293 
	C559.102722,202.900681 560.049072,205.450134 560.995422,207.999603 
	C561.104309,209.286087 561.213135,210.572586 561.244019,212.597641 
	C561.682861,214.262558 562.199707,215.188904 562.716553,216.115234 
	C562.781921,216.527283 562.847290,216.939331 562.696655,217.875671 
	C562.692993,219.242050 562.905334,220.084122 563.117676,220.926193 
	C563.117676,220.926193 562.997437,220.938538 562.996399,221.300049 
	C564.017761,225.776566 565.040161,229.891541 566.062622,234.006516 
	C566.169495,235.931946 566.276367,237.857361 566.284424,240.539688 
	C566.658447,242.246567 567.131226,243.196548 567.603943,244.146530 
	C567.705688,244.862671 567.807434,245.578796 567.663574,246.913864 
	C567.648682,249.026245 567.879333,250.519684 568.110046,252.013123 
	C568.162903,252.387009 568.215698,252.760880 568.162476,253.845322 
	C568.462952,256.378540 568.869385,258.201202 569.275818,260.023865 
	C569.431030,263.408539 569.586304,266.793182 569.496277,270.948853 
	C569.517822,281.141937 569.784668,290.564026 570.051514,299.986115 
z"/>
<path fill="#8DAE4B" opacity="1.000000" stroke="none" 
	d="
M502.874542,537.991760 
	C505.895599,533.539917 508.651520,528.878296 511.981262,524.670776 
	C531.509949,499.994202 551.173523,475.424408 570.789856,450.817230 
	C589.166321,427.765411 607.541687,404.712708 625.915894,381.659119 
	C644.187073,358.734894 662.427429,335.785980 680.736084,312.891724 
	C693.252869,297.240021 705.882812,281.678741 718.390869,266.020142 
	C719.254456,264.939026 719.523315,263.382751 720.082458,261.689972 
	C720.520508,261.266235 720.944824,261.199890 721.849365,261.345581 
	C722.875671,261.410156 723.421753,261.262695 723.967834,261.115234 
	C725.261658,262.230927 727.524719,263.212097 727.701172,264.482941 
	C729.715759,278.993652 731.412415,293.548553 732.800720,308.839539 
	C732.276611,320.337219 732.126160,331.086823 732.058777,341.836945 
	C732.054260,342.556641 732.678406,343.280273 733.010132,344.002075 
	C732.474304,351.441315 732.406677,358.951477 731.292664,366.303101 
	C729.634827,377.243317 727.860413,388.238037 725.006226,398.907440 
	C720.959473,414.034973 716.552429,429.135864 711.095398,443.800110 
	C702.691589,466.382629 691.180664,487.501465 677.189026,507.132721 
	C669.778809,517.529663 661.526489,527.326355 653.087280,537.705566 
	C602.638367,538.008606 552.756470,538.000183 502.874542,537.991760 
z"/>
<path fill="#A0C061" opacity="1.000000" stroke="none" 
	d="
M446.029114,28.755339 
	C446.893982,30.966740 447.932800,33.238396 447.934753,35.510941 
	C448.016052,130.570084 448.004700,225.629318 448.004761,320.688538 
	C448.004761,353.151855 448.004333,385.615143 448.002075,418.549438 
	C446.104309,423.372192 444.341339,427.788391 442.270569,432.055206 
	C440.633057,435.429230 438.617554,438.619843 436.432800,441.967590 
	C434.453491,434.679230 433.064301,427.247009 431.102722,419.968994 
	C428.837158,411.563141 426.244324,403.233978 423.480469,394.976318 
	C417.063354,375.803589 408.152435,357.811432 397.784058,340.460815 
	C385.736938,320.300873 372.036621,301.459015 355.361908,284.872650 
	C346.324188,275.882782 337.141083,267.039093 327.878998,257.765289 
	C331.927155,220.055649 341.606842,184.181549 356.786743,149.813293 
	C372.896698,113.339272 394.778809,80.621658 421.897247,51.462597 
	C429.344574,43.454876 437.752350,36.340382 446.029114,28.755339 
z"/>
<path fill="#D99372" opacity="1.000000" stroke="none" 
	d="
M260.843689,538.124268 
	C301.270081,538.064270 341.199371,538.052979 381.606323,538.018616 
	C391.077454,538.013733 400.070892,538.031921 409.532867,538.032471 
	C421.691254,538.053650 433.381073,538.092407 445.536591,538.629883 
	C446.001312,564.408325 446.000397,589.688110 445.531036,614.984314 
	C369.333374,615.010437 293.604156,615.011780 217.874939,615.069397 
	C215.601822,615.071106 213.329163,615.662170 211.056290,615.978455 
	C205.284576,615.686584 199.511398,615.420776 193.741714,615.093323 
	C190.102966,614.886902 186.286789,615.211914 182.868881,614.210632 
	C173.651459,611.510559 169.104614,604.901123 169.093781,595.274231 
	C169.079544,582.625916 169.071945,569.977539 169.098846,557.329285 
	C169.116592,548.986755 174.135117,542.093262 182.162140,540.033630 
	C186.146133,539.011414 190.339996,538.367554 194.445618,538.332275 
	C216.411438,538.143555 238.379379,538.200745 260.843689,538.124268 
z"/>
<path fill="#C6876A" opacity="1.000000" stroke="none" 
	d="
M445.999451,614.967834 
	C446.000397,589.688110 446.001312,564.408325 446.001709,538.686646 
	C464.656097,538.169983 483.311066,538.095215 502.420288,538.006104 
	C552.756470,538.000183 602.638367,538.008606 652.931702,538.038452 
	C664.314392,538.132812 675.290955,538.019409 686.255188,538.336060 
	C695.509827,538.603333 704.305237,540.335632 708.629517,550.063416 
	C709.534363,552.098877 709.981628,554.500549 710.002930,556.739502 
	C710.129089,570.040283 710.100769,583.343079 710.058716,596.644897 
	C710.027466,606.539673 702.809570,614.330627 692.765991,614.850098 
	C684.969849,615.253418 677.143250,615.065979 668.384888,615.094299 
	C632.950989,615.040649 598.462341,615.018799 563.973633,615.030762 
	C524.654236,615.044373 485.334869,615.088196 446.008545,615.081421 
	C446.001587,615.043945 445.999451,614.967834 445.999451,614.967834 
z"/>
<path fill="#B67159" opacity="1.000000" stroke="none" 
	d="
M211.026642,616.393799 
	C213.329163,615.662170 215.601822,615.071106 217.874939,615.069397 
	C293.604156,615.011780 369.333374,615.010437 445.531036,614.984314 
	C445.999451,614.967834 446.001587,615.043945 446.005615,615.536255 
	C446.016998,626.332520 446.024353,636.636475 445.559845,646.960938 
	C428.291229,647.010437 411.494415,647.039490 394.328796,647.076782 
	C379.860474,641.259888 365.883026,640.900146 352.072601,648.020508 
	C350.347717,647.679565 348.623260,647.043152 346.897949,647.040833 
	C304.840027,646.985413 262.781982,646.988586 220.723984,647.028381 
	C218.933640,647.030029 217.143707,647.483154 214.994476,647.792236 
	C214.517426,647.446472 214.399460,647.034302 214.432175,646.198364 
	C214.707550,645.432129 214.602570,645.181641 214.267929,645.022888 
	C213.645660,638.497864 213.023376,631.972839 212.573975,624.661072 
	C212.299103,622.891235 211.851379,621.908203 211.403625,620.925110 
	C211.268066,619.553101 211.132538,618.181152 211.026642,616.393799 
z"/>
<path fill="#A66852" opacity="1.000000" stroke="none" 
	d="
M446.031677,646.940430 
	C446.024353,636.636475 446.016998,626.332520 446.012573,615.573730 
	C485.334869,615.088196 524.654236,615.044373 563.973633,615.030762 
	C598.462341,615.018799 632.950989,615.040649 667.945435,615.062256 
	C667.241455,626.081665 666.031799,637.086426 664.704529,648.495911 
	C662.625610,648.266479 660.665405,647.082581 658.702881,647.078735 
	C615.018738,646.992981 571.334290,647.037415 526.807617,647.079468 
	C512.346802,641.206177 498.718475,641.385986 484.604370,647.029480 
	C471.418243,647.017029 458.709106,647.010925 446.008667,646.989563 
	C446.017303,646.974243 446.031647,646.940430 446.031677,646.940430 
z"/>
<path fill="#B4CA89" opacity="1.000000" stroke="none" 
	d="
M570.376160,299.980591 
	C569.784668,290.564026 569.517822,281.141937 569.477661,271.389465 
	C570.371460,275.512329 571.190674,279.949493 571.662781,284.423340 
	C572.124023,288.793854 572.230896,293.201782 572.727844,297.983154 
	C572.208496,298.907074 571.454651,299.441071 570.376160,299.980591 
z"/>
<path fill="#86AB2C" opacity="1.000000" stroke="none" 
	d="
M733.089844,343.538940 
	C732.678406,343.280273 732.054260,342.556641 732.058777,341.836945 
	C732.126160,331.086823 732.276611,320.337219 732.705017,309.293945 
	C733.058167,320.358887 733.113892,331.717346 733.089844,343.538940 
z"/>
<path fill="#B4CA89" opacity="1.000000" stroke="none" 
	d="
M566.274780,233.730621 
	C565.040161,229.891541 564.017761,225.776566 563.054199,221.280975 
	C564.237610,225.085159 565.362244,229.269943 566.274780,233.730621 
z"/>
<path fill="#B4CA89" opacity="1.000000" stroke="none" 
	d="
M561.192383,207.765564 
	C560.049072,205.450134 559.102722,202.900681 558.235596,200.010376 
	C559.339600,202.290207 560.364441,204.910873 561.192383,207.765564 
z"/>
<path fill="#B4CA89" opacity="1.000000" stroke="none" 
	d="
M554.963989,186.650925 
	C554.075806,184.764664 553.231750,182.488556 552.549927,179.873657 
	C553.477356,181.776962 554.242737,184.019012 554.963989,186.650925 
z"/>
<path fill="#B4CA89" opacity="1.000000" stroke="none" 
	d="
M569.474487,259.729431 
	C568.869385,258.201202 568.462952,256.378540 568.169189,254.128601 
	C568.745605,255.612564 569.209351,257.523773 569.474487,259.729431 
z"/>
<path fill="#B4CA89" opacity="1.000000" stroke="none" 
	d="
M545.933838,159.659637 
	C544.975037,158.199997 544.003540,156.371140 543.065186,154.225327 
	C544.039246,155.702377 544.980164,157.496384 545.933838,159.659637 
z"/>
<path fill="#B4CA89" opacity="1.000000" stroke="none" 
	d="
M534.858887,134.732285 
	C533.972961,133.481735 533.146790,131.876816 532.438721,129.907043 
	C533.344055,131.154099 534.131348,132.765991 534.858887,134.732285 
z"/>
<path fill="#B4CA89" opacity="1.000000" stroke="none" 
	d="
M551.248230,173.793671 
	C550.380432,172.451630 549.694458,170.897202 549.151001,169.065308 
	C550.005737,170.385666 550.717957,171.983459 551.248230,173.793671 
z"/>
<path fill="#B4CA89" opacity="1.000000" stroke="none" 
	d="
M568.298828,251.738632 
	C567.879333,250.519684 567.648682,249.026245 567.646545,247.276611 
	C568.079224,248.501648 568.283386,249.982895 568.298828,251.738632 
z"/>
<path fill="#B4CA89" opacity="1.000000" stroke="none" 
	d="
M567.728882,243.818726 
	C567.131226,243.196548 566.658447,242.246567 566.312988,240.948257 
	C566.911499,241.563599 567.382629,242.527267 567.728882,243.818726 
z"/>
<path fill="#B4CA89" opacity="1.000000" stroke="none" 
	d="
M562.816589,215.781937 
	C562.199707,215.188904 561.682861,214.262558 561.276245,212.983368 
	C561.896545,213.569901 562.406555,214.509262 562.816589,215.781937 
z"/>
<path fill="#D99372" opacity="1.000000" stroke="none" 
	d="
M211.280670,621.255615 
	C211.851379,621.908203 212.299103,622.891235 212.586670,624.232910 
	C212.003586,623.589661 211.580643,622.587891 211.280670,621.255615 
z"/>
<path fill="#B4CA89" opacity="1.000000" stroke="none" 
	d="
M556.313599,189.815216 
	C555.816711,189.467987 555.482117,188.919647 555.208130,188.034866 
	C555.671082,188.336990 556.073486,188.975540 556.313599,189.815216 
z"/>
<path fill="#B4CA89" opacity="1.000000" stroke="none" 
	d="
M582.707031,293.168243 
	C582.439209,293.734985 581.863403,294.298309 580.940186,294.812622 
	C581.194824,294.230652 581.796997,293.697754 582.707031,293.168243 
z"/>
<path fill="#B4CA89" opacity="1.000000" stroke="none" 
	d="
M557.733154,194.833832 
	C557.165100,194.513107 556.682373,193.888046 556.296997,192.943268 
	C556.869019,193.258865 557.343750,193.894180 557.733154,194.833832 
z"/>
<path fill="#B4CA89" opacity="1.000000" stroke="none" 
	d="
M563.159058,220.555328 
	C562.905334,220.084122 562.692993,219.242050 562.688538,218.189178 
	C562.997803,218.713745 563.099121,219.449097 563.159058,220.555328 
z"/>
<path fill="#ACD06A" opacity="1.000000" stroke="none" 
	d="
M723.643311,261.027649 
	C723.421753,261.262695 722.875671,261.410156 722.171875,261.372253 
	C722.449036,261.104645 722.883972,261.022369 723.643311,261.027649 
z"/>
<path fill="#B4CA89" opacity="1.000000" stroke="none" 
	d="
M558.127075,198.626465 
	C557.893677,198.414780 557.698853,197.866028 557.692200,197.145020 
	C557.975464,197.411636 558.070557,197.850525 558.127075,198.626465 
z"/>
<path fill="#B4CA89" opacity="1.000000" stroke="none" 
	d="
M543.134888,153.747681 
	C542.872192,153.628922 542.643066,153.349777 542.646118,153.047455 
	C543.068726,153.163620 543.165466,153.351288 543.134888,153.747681 
z"/>
<path fill="#B4CA89" opacity="1.000000" stroke="none" 
	d="
M539.896118,145.862335 
	C539.600586,145.750946 539.352539,145.427109 539.292419,145.027130 
	C539.761658,145.099792 539.916077,145.332764 539.896118,145.862335 
z"/>
<path fill="#B4CA89" opacity="1.000000" stroke="none" 
	d="
M538.057922,141.809891 
	C537.788391,141.678574 537.557373,141.368820 537.552368,141.030182 
	C537.988159,141.158966 538.094116,141.369019 538.057922,141.809891 
z"/>
<path fill="#D89272" opacity="1.000000" stroke="none" 
	d="
M214.203674,645.267334 
	C214.602570,645.181641 214.707550,645.432129 214.463043,645.874268 
	C214.275314,645.820007 214.207352,645.665833 214.203674,645.267334 
z"/>
<path fill="#B4CA89" opacity="1.000000" stroke="none" 
	d="
M548.134277,166.708527 
	C547.920593,166.669525 547.713867,166.402374 547.642395,165.897064 
	C547.988647,165.892929 548.109863,166.166748 548.134277,166.708527 
z"/>
<path fill="#3E866E" opacity="1.000000" stroke="none" 
	d="
M485.081360,647.035889 
	C498.718475,641.385986 512.346802,641.206177 526.319397,647.111084 
	C535.639343,653.727478 544.470276,660.426514 550.663574,669.995728 
	C561.536133,686.794739 568.688782,704.862671 572.236938,724.687317 
	C575.051575,740.414124 575.494873,756.133606 574.679871,771.854492 
	C573.166260,801.051636 565.566162,828.559143 547.189697,851.932739 
	C539.809448,861.319885 530.842224,869.731445 518.763184,872.911743 
	C505.473022,876.410767 492.707092,875.082642 480.759918,867.338135 
	C465.274933,857.300110 456.568604,842.205566 448.496246,826.115723 
	C446.090973,818.670898 444.038635,811.374695 441.805389,804.134338 
	C441.531982,803.247986 440.289185,802.660522 439.495667,801.934570 
	C438.950165,802.642334 438.135071,803.270264 437.898468,804.069397 
	C431.765686,824.785278 424.024231,844.292725 407.878998,859.988647 
	C388.076385,879.240234 360.498596,879.357605 340.968292,861.226013 
	C327.927338,849.119019 319.443878,834.090942 313.814026,817.168579 
	C306.545776,795.321533 303.017548,772.984497 304.389709,750.093262 
	C306.063934,722.163818 311.880737,695.278442 327.817810,671.488831 
	C334.100616,662.110291 341.732239,654.173645 351.778748,648.199463 
	C365.883026,640.900146 379.860474,641.259888 394.529602,647.368103 
	C412.531738,659.048828 424.546936,674.628296 431.303528,694.326965 
	C434.148468,702.621399 437.203491,710.843689 440.390259,719.732544 
	C441.006012,716.939331 441.393921,715.004333 441.862091,713.089050 
	C443.300293,707.205261 444.769257,701.329041 446.539795,695.274658 
	C447.271179,694.409668 447.732422,693.742249 448.100433,693.026855 
	C454.596802,680.398010 460.357635,667.263123 471.574219,657.803650 
	C475.974213,654.092957 480.573090,650.618103 485.081360,647.035889 
M567.924927,748.667236 
	C567.617859,745.521484 567.341675,742.372375 566.998596,739.230530 
	C564.670349,717.905457 558.131714,698.040344 546.052368,680.206238 
	C538.358948,668.847656 528.216614,660.283997 514.678772,657.107788 
	C496.264008,652.787476 481.737213,660.660583 470.133698,674.079163 
	C453.916931,692.832581 446.007996,715.583008 444.261475,739.771362 
	C442.525635,763.812073 442.453339,788.143250 451.812408,811.261719 
	C457.515045,825.348145 464.066071,838.877930 475.729675,849.136780 
	C490.102539,861.778564 507.834503,866.168396 525.814819,856.019958 
	C540.524292,847.717651 549.385010,834.327271 556.072754,819.297119 
	C565.953430,797.091248 568.946594,773.697449 567.924927,748.667236 
M320.847992,813.623840 
	C325.010956,824.797546 331.010773,834.919312 338.718323,843.976746 
	C347.391235,854.168762 358.561218,860.586609 371.795654,861.543884 
	C383.044464,862.357422 393.335114,858.117737 401.950714,850.550476 
	C425.248840,830.087341 432.378204,802.261169 435.631805,773.292908 
	C436.999969,761.111694 435.243439,748.481995 434.030548,736.142395 
	C433.215668,727.852234 431.449371,719.539062 429.077271,711.542175 
	C423.691315,693.384827 415.294342,676.842590 399.643341,665.205994 
	C387.597015,656.249634 374.435303,653.169678 359.782043,658.716492 
	C347.325043,663.431824 338.699738,672.399536 331.557098,683.065247 
	C316.047089,706.225586 311.706238,732.564514 311.437164,759.598450 
	C311.256622,777.740723 314.148621,795.714050 320.847992,813.623840 
z"/>
<path fill="#D69272" opacity="1.000000" stroke="none" 
	d="
M446.226257,695.449890 
	C444.769257,701.329041 443.300293,707.205261 441.862091,713.089050 
	C441.393921,715.004333 441.006012,716.939331 440.390259,719.732544 
	C437.203491,710.843689 434.148468,702.621399 431.303528,694.326965 
	C424.546936,674.628296 412.531738,659.048828 394.898438,647.359802 
	C411.494415,647.039490 428.291229,647.010437 445.559814,646.960938 
	C446.031647,646.940430 446.017303,646.974243 446.009003,647.457642 
	C446.002502,652.416443 445.985321,656.891968 446.009796,661.367249 
	C446.071960,672.728210 446.152863,684.088989 446.226257,695.449890 
z"/>
<path fill="#C3876A" opacity="1.000000" stroke="none" 
	d="
M446.539795,695.274658 
	C446.152863,684.088989 446.071960,672.728210 446.009796,661.367249 
	C445.985321,656.891968 446.002502,652.416443 446.000366,647.472961 
	C458.709106,647.010925 471.418243,647.017029 484.604370,647.029480 
	C480.573090,650.618103 475.974213,654.092957 471.574219,657.803650 
	C460.357635,667.263123 454.596802,680.398010 448.100433,693.026855 
	C447.732422,693.742249 447.271179,694.409668 446.539795,695.274658 
z"/>
<path fill="#060607" opacity="1.000000" stroke="none" 
	d="
M567.937256,749.148682 
	C568.946594,773.697449 565.953430,797.091248 556.072754,819.297119 
	C549.385010,834.327271 540.524292,847.717651 525.814819,856.019958 
	C507.834503,866.168396 490.102539,861.778564 475.729675,849.136780 
	C464.066071,838.877930 457.515045,825.348145 451.812408,811.261719 
	C442.453339,788.143250 442.525635,763.812073 444.261475,739.771362 
	C446.007996,715.583008 453.916931,692.832581 470.133698,674.079163 
	C481.737213,660.660583 496.264008,652.787476 514.678772,657.107788 
	C528.216614,660.283997 538.358948,668.847656 546.052368,680.206238 
	C558.131714,698.040344 564.670349,717.905457 566.998596,739.230530 
	C567.341675,742.372375 567.617859,745.521484 567.937256,749.148682 
M481.629913,841.308167 
	C479.796112,841.602478 477.962311,841.896729 475.209595,842.338501 
	C485.655060,852.250366 496.344727,858.301819 510.314331,856.396240 
	C523.053894,854.658386 532.328125,847.363037 539.850464,837.701233 
	C554.709229,818.616699 561.048828,796.151978 563.104614,772.617310 
	C565.294983,747.542542 562.127258,722.956482 551.693726,699.702881 
	C545.469421,685.830627 537.337280,673.517517 523.734802,665.626099 
	C507.358612,656.125549 488.107513,661.116394 476.646271,674.623962 
	C477.050323,674.880432 477.423981,675.312378 477.833130,675.349060 
	C492.476501,676.664246 502.624786,685.047119 510.390228,696.652161 
	C519.768677,710.667786 524.685242,726.302490 526.490906,743.072998 
	C528.900696,765.454712 526.908447,787.233948 517.493164,807.812561 
	C510.346680,823.432251 500.712036,836.966919 481.629913,841.308167 
M503.413940,726.872192 
	C504.091705,725.734619 504.894287,724.652161 505.425568,723.449890 
	C507.645966,718.425354 505.943481,712.240723 501.446136,708.696472 
	C497.210327,705.358337 490.675079,705.346313 486.230682,708.668457 
	C481.882233,711.918762 480.541260,717.540466 482.093384,722.791138 
	C484.477051,730.854858 495.986298,734.960938 503.413940,726.872192 
z"/>
<path fill="#060506" opacity="1.000000" stroke="none" 
	d="
M320.686371,813.269775 
	C314.148621,795.714050 311.256622,777.740723 311.437164,759.598450 
	C311.706238,732.564514 316.047089,706.225586 331.557098,683.065247 
	C338.699738,672.399536 347.325043,663.431824 359.782043,658.716492 
	C374.435303,653.169678 387.597015,656.249634 399.643341,665.205994 
	C415.294342,676.842590 423.691315,693.384827 429.077271,711.542175 
	C431.449371,719.539062 433.215668,727.852234 434.030548,736.142395 
	C435.243439,748.481995 436.999969,761.111694 435.631805,773.292908 
	C432.378204,802.261169 425.248840,830.087341 401.950714,850.550476 
	C393.335114,858.117737 383.044464,862.357422 371.795654,861.543884 
	C358.561218,860.586609 347.391235,854.168762 338.718323,843.976746 
	C331.010773,834.919312 325.010956,824.797546 320.686371,813.269775 
M369.399475,661.109924 
	C359.371826,662.221069 351.625427,667.463379 344.312988,674.353394 
	C345.319397,674.920288 345.723602,675.330200 346.159454,675.367126 
	C360.672424,676.597961 370.713287,685.038635 378.466888,696.343323 
	C389.299286,712.136902 393.888275,730.282776 395.474823,749.039246 
	C397.066528,767.857178 394.295044,786.327148 387.279541,803.936584 
	C381.238831,819.099121 372.910980,832.578308 356.860535,839.096558 
	C352.877441,840.714172 348.522156,841.415283 344.155365,842.586609 
	C360.931488,861.689331 386.521881,861.371704 404.290771,842.095154 
	C422.873413,821.935791 428.686859,796.677490 431.373230,770.652344 
	C432.827667,756.561890 431.553802,742.328491 428.556671,728.209045 
	C424.834351,710.673523 419.453766,694.082458 408.092010,679.945129 
	C398.400513,667.886047 386.731445,659.540527 369.399475,661.109924 
M357.168671,730.504517 
	C357.975708,730.688049 358.779510,730.887573 359.590332,731.052551 
	C365.649170,732.285950 371.051758,729.294922 373.927429,723.122498 
	C375.992920,718.689148 374.195099,712.480530 369.816437,708.925171 
	C365.355957,705.303345 358.633820,705.165283 354.293671,708.826904 
	C348.065979,714.081116 346.005310,722.922363 357.168671,730.504517 
z"/>
<path fill="#F5EAE5" opacity="1.000000" stroke="none" 
	d="
M482.014435,841.181213 
	C500.712036,836.966919 510.346680,823.432251 517.493164,807.812561 
	C526.908447,787.233948 528.900696,765.454712 526.490906,743.072998 
	C524.685242,726.302490 519.768677,710.667786 510.390228,696.652161 
	C502.624786,685.047119 492.476501,676.664246 477.833130,675.349060 
	C477.423981,675.312378 477.050323,674.880432 476.646271,674.623962 
	C488.107513,661.116394 507.358612,656.125549 523.734802,665.626099 
	C537.337280,673.517517 545.469421,685.830627 551.693726,699.702881 
	C562.127258,722.956482 565.294983,747.542542 563.104614,772.617310 
	C561.048828,796.151978 554.709229,818.616699 539.850464,837.701233 
	C532.328125,847.363037 523.053894,854.658386 510.314331,856.396240 
	C496.344727,858.301819 485.655060,852.250366 475.209595,842.338501 
	C477.962311,841.896729 479.796112,841.602478 482.014435,841.181213 
z"/>
<path fill="#ECE2DC" opacity="1.000000" stroke="none" 
	d="
M503.159393,727.135620 
	C495.986298,734.960938 484.477051,730.854858 482.093384,722.791138 
	C480.541260,717.540466 481.882233,711.918762 486.230682,708.668457 
	C490.675079,705.346313 497.210327,705.358337 501.446136,708.696472 
	C505.943481,712.240723 507.645966,718.425354 505.425568,723.449890 
	C504.894287,724.652161 504.091705,725.734619 503.159393,727.135620 
z"/>
<path fill="#F5EAE5" opacity="1.000000" stroke="none" 
	d="
M369.813416,661.032471 
	C386.731445,659.540527 398.400513,667.886047 408.092010,679.945129 
	C419.453766,694.082458 424.834351,710.673523 428.556671,728.209045 
	C431.553802,742.328491 432.827667,756.561890 431.373230,770.652344 
	C428.686859,796.677490 422.873413,821.935791 404.290771,842.095154 
	C386.521881,861.371704 360.931488,861.689331 344.155365,842.586609 
	C348.522156,841.415283 352.877441,840.714172 356.860535,839.096558 
	C372.910980,832.578308 381.238831,819.099121 387.279541,803.936584 
	C394.295044,786.327148 397.066528,767.857178 395.474823,749.039246 
	C393.888275,730.282776 389.299286,712.136902 378.466888,696.343323 
	C370.713287,685.038635 360.672424,676.597961 346.159454,675.367126 
	C345.723602,675.330200 345.319397,674.920288 344.312988,674.353394 
	C351.625427,667.463379 359.371826,662.221069 369.813416,661.032471 
z"/>
<path fill="#EEE3DE" opacity="1.000000" stroke="none" 
	d="
M356.822113,730.366394 
	C346.005310,722.922363 348.065979,714.081116 354.293671,708.826904 
	C358.633820,705.165283 365.355957,705.303345 369.816437,708.925171 
	C374.195099,712.480530 375.992920,718.689148 373.927429,723.122498 
	C371.051758,729.294922 365.649170,732.285950 359.590332,731.052551 
	C358.779510,730.887573 357.975708,730.688049 356.822113,730.366394 
z"/>
</svg>